<mxfile host="app.diagrams.net" agent="Mozilla/5.0 (Windows NT 10.0; Win64; x64) AppleWebKit/537.36 (KHTML, like Gecko) Chrome/132.0.0.0 Safari/537.36" version="26.0.10">
  <diagram name="Pagina-1" id="57_WmULIC75-7tnA96ZO">
    <mxGraphModel dx="957" dy="495" grid="1" gridSize="10" guides="1" tooltips="1" connect="1" arrows="1" fold="1" page="1" pageScale="1" pageWidth="827" pageHeight="1169" math="0" shadow="0">
      <root>
        <mxCell id="0" />
        <mxCell id="1" parent="0" />
        <mxCell id="gwnb6dgPSG9VxvGlVKOW-1" value="" style="ellipse;whiteSpace=wrap;html=1;aspect=fixed;" parent="1" vertex="1">
          <mxGeometry x="430" y="360" width="20" height="20" as="geometry" />
        </mxCell>
        <mxCell id="gwnb6dgPSG9VxvGlVKOW-7" value="" style="edgeStyle=orthogonalEdgeStyle;rounded=0;orthogonalLoop=1;jettySize=auto;html=1;" parent="1" edge="1">
          <mxGeometry relative="1" as="geometry">
            <mxPoint x="440" y="380" as="sourcePoint" />
            <mxPoint x="440" y="420" as="targetPoint" />
          </mxGeometry>
        </mxCell>
        <mxCell id="gwnb6dgPSG9VxvGlVKOW-13" style="edgeStyle=orthogonalEdgeStyle;rounded=0;orthogonalLoop=1;jettySize=auto;html=1;exitX=0;exitY=0.5;exitDx=0;exitDy=0;" parent="1" source="gwnb6dgPSG9VxvGlVKOW-10" target="gwnb6dgPSG9VxvGlVKOW-11" edge="1">
          <mxGeometry relative="1" as="geometry">
            <Array as="points">
              <mxPoint x="350" y="485" />
            </Array>
          </mxGeometry>
        </mxCell>
        <mxCell id="gwnb6dgPSG9VxvGlVKOW-17" style="edgeStyle=orthogonalEdgeStyle;rounded=0;orthogonalLoop=1;jettySize=auto;html=1;exitX=1;exitY=0.5;exitDx=0;exitDy=0;" parent="1" source="gwnb6dgPSG9VxvGlVKOW-10" target="gwnb6dgPSG9VxvGlVKOW-16" edge="1">
          <mxGeometry relative="1" as="geometry">
            <Array as="points">
              <mxPoint x="530" y="485" />
            </Array>
          </mxGeometry>
        </mxCell>
        <mxCell id="gwnb6dgPSG9VxvGlVKOW-10" value="Selezione interazione con personaggio non giocante" style="rhombus;whiteSpace=wrap;html=1;shadow=0;fontFamily=Helvetica;fontSize=12;align=center;strokeWidth=1;spacing=6;spacingTop=-4;" parent="1" vertex="1">
          <mxGeometry x="352.5" y="420" width="175" height="130" as="geometry" />
        </mxCell>
        <mxCell id="gwnb6dgPSG9VxvGlVKOW-15" value="" style="edgeStyle=orthogonalEdgeStyle;rounded=0;orthogonalLoop=1;jettySize=auto;html=1;" parent="1" source="gwnb6dgPSG9VxvGlVKOW-11" target="gwnb6dgPSG9VxvGlVKOW-14" edge="1">
          <mxGeometry relative="1" as="geometry" />
        </mxCell>
        <mxCell id="gwnb6dgPSG9VxvGlVKOW-11" value="Richiesta di informazioni" style="rounded=1;whiteSpace=wrap;html=1;fontSize=12;glass=0;strokeWidth=1;shadow=0;" parent="1" vertex="1">
          <mxGeometry x="292" y="555" width="120" height="40" as="geometry" />
        </mxCell>
        <mxCell id="gwnb6dgPSG9VxvGlVKOW-30" style="edgeStyle=orthogonalEdgeStyle;rounded=0;orthogonalLoop=1;jettySize=auto;html=1;exitX=0.477;exitY=0.995;exitDx=0;exitDy=0;exitPerimeter=0;" parent="1" source="gwnb6dgPSG9VxvGlVKOW-14" target="gwnb6dgPSG9VxvGlVKOW-24" edge="1">
          <mxGeometry relative="1" as="geometry">
            <Array as="points">
              <mxPoint x="349" y="695" />
            </Array>
          </mxGeometry>
        </mxCell>
        <mxCell id="gwnb6dgPSG9VxvGlVKOW-14" value="Risposta personaggio non giocante" style="rounded=1;whiteSpace=wrap;html=1;fontSize=12;glass=0;strokeWidth=1;shadow=0;" parent="1" vertex="1">
          <mxGeometry x="292" y="625" width="120" height="40" as="geometry" />
        </mxCell>
        <mxCell id="gwnb6dgPSG9VxvGlVKOW-21" value="" style="edgeStyle=orthogonalEdgeStyle;rounded=0;orthogonalLoop=1;jettySize=auto;html=1;" parent="1" source="gwnb6dgPSG9VxvGlVKOW-16" target="gwnb6dgPSG9VxvGlVKOW-20" edge="1">
          <mxGeometry relative="1" as="geometry" />
        </mxCell>
        <mxCell id="gwnb6dgPSG9VxvGlVKOW-16" value="Selezione animazione" style="rounded=1;whiteSpace=wrap;html=1;fontSize=12;glass=0;strokeWidth=1;shadow=0;" parent="1" vertex="1">
          <mxGeometry x="470" y="555" width="120" height="40" as="geometry" />
        </mxCell>
        <mxCell id="gwnb6dgPSG9VxvGlVKOW-31" style="edgeStyle=orthogonalEdgeStyle;rounded=0;orthogonalLoop=1;jettySize=auto;html=1;entryX=1;entryY=0.5;entryDx=0;entryDy=0;exitX=0.537;exitY=0.975;exitDx=0;exitDy=0;exitPerimeter=0;" parent="1" source="gwnb6dgPSG9VxvGlVKOW-20" target="gwnb6dgPSG9VxvGlVKOW-24" edge="1">
          <mxGeometry relative="1" as="geometry">
            <Array as="points">
              <mxPoint x="530" y="664" />
              <mxPoint x="530" y="695" />
            </Array>
          </mxGeometry>
        </mxCell>
        <mxCell id="gwnb6dgPSG9VxvGlVKOW-20" value="Riproduzione animazione" style="rounded=1;whiteSpace=wrap;html=1;fontSize=12;glass=0;strokeWidth=1;shadow=0;" parent="1" vertex="1">
          <mxGeometry x="470" y="625" width="120" height="40" as="geometry" />
        </mxCell>
        <mxCell id="gwnb6dgPSG9VxvGlVKOW-22" value="" style="ellipse;whiteSpace=wrap;html=1;aspect=fixed;" parent="1" vertex="1">
          <mxGeometry x="430" y="725" width="20" height="20" as="geometry" />
        </mxCell>
        <mxCell id="gwnb6dgPSG9VxvGlVKOW-23" value="" style="ellipse;whiteSpace=wrap;html=1;aspect=fixed;fillColor=#000000;" parent="1" vertex="1">
          <mxGeometry x="435" y="730" width="10" height="10" as="geometry" />
        </mxCell>
        <mxCell id="gwnb6dgPSG9VxvGlVKOW-29" style="edgeStyle=orthogonalEdgeStyle;rounded=0;orthogonalLoop=1;jettySize=auto;html=1;entryX=0.5;entryY=0;entryDx=0;entryDy=0;" parent="1" source="gwnb6dgPSG9VxvGlVKOW-24" target="gwnb6dgPSG9VxvGlVKOW-22" edge="1">
          <mxGeometry relative="1" as="geometry" />
        </mxCell>
        <mxCell id="gwnb6dgPSG9VxvGlVKOW-24" value="" style="rhombus;whiteSpace=wrap;html=1;shadow=0;fontFamily=Helvetica;fontSize=12;align=center;strokeWidth=1;spacing=6;spacingTop=-4;" parent="1" vertex="1">
          <mxGeometry x="430" y="685" width="20" height="20" as="geometry" />
        </mxCell>
      </root>
    </mxGraphModel>
  </diagram>
</mxfile>
